<?xml version="1.0" encoding="UTF-8"?>
<svg width="27px" height="27px" viewBox="0 0 27 27" version="1.1" xmlns="http://www.w3.org/2000/svg" xmlns:xlink="http://www.w3.org/1999/xlink">
    <title>icon_page_prev</title>
    <g id="7.-Motion" stroke="none" stroke-width="1" fill="none" fill-rule="evenodd">
        <g id="(7-1)-Motion-basics-and-usage" transform="translate(-658.000000, -16904.000000)">
            <g id="Group-2" transform="translate(638.000000, 16807.000000)">
                <g id="Documents/Move-Chapter/Previous" transform="translate(0.000000, 81.000000)">
                    <g id="icon/page_prev" transform="translate(20.000000, 16.000000)">
                        <g id="Group-2" transform="translate(13.500000, 13.500000) scale(-1, 1) translate(-13.500000, -13.500000) ">
                            <circle id="Oval" fill="#ACAAA7" cx="13.5" cy="13.5" r="13.5"></circle>
                            <path d="M20.5398301,11.9551275 L15.3907168,7.17358482 C15.1366824,6.93608002 14.7303986,6.94270036 14.4849176,7.19096322 C14.2394366,7.43839854 14.24799,7.83148141 14.5028796,8.06898621 L19.1439243,12.379657 L6.64150083,12.379657 C6.28653704,12.379657 6,12.6577114 6,13.0003142 C6,13.3429169 6.28653704,13.6209713 6.64150083,13.6209713 L19.1439243,13.6209713 L14.5028796,17.9316422 C14.24799,18.1683194 14.2394366,18.5614023 14.4849176,18.8088376 C14.6097964,18.9362792 14.7791526,19 14.9476535,19 C15.1067457,19 15.2675486,18.942072 15.3907168,18.8270435 L20.5406854,14.0438457 C20.8374865,13.768274 21,13.3975348 21,13.0003142 C21,12.6014385 20.8374865,12.2306993 20.5398301,11.9551275" id="Forward-/-Move-/-Send" fill="#FFFFFF"></path>
                        </g>
                    </g>
                </g>
            </g>
        </g>
    </g>
</svg>