<?xml version="1.0" encoding="UTF-8"?>
<svg width="26px" height="26px" viewBox="0 0 26 26" version="1.1" xmlns="http://www.w3.org/2000/svg" xmlns:xlink="http://www.w3.org/1999/xlink">
    <title>icon_external</title>
    <g id="4.-Components" stroke="none" stroke-width="1" fill="none" fill-rule="evenodd">
        <g id="(4-1)-App-bar" transform="translate(-848.000000, -1462.000000)">
            <g id="Group-2" transform="translate(638.000000, 1399.000000)">
                <g id="Documents/Refer-to" transform="translate(0.000000, 42.000000)">
                    <g id="Icon/Go-to-External" transform="translate(210.000000, 21.000000)">
                        <path d="M20.9,12.3994141 C20.9,13.8439887 20.9,16.0108507 20.9,18.9 C20.9,20.004 20.004,20.9 18.9,20.9 L6.9,20.9 C5.796,20.9 4.9,20.004 4.9,18.9 L4.9,6.9 C4.9,5.796 5.796,4.9 6.9,4.9 C9.77620443,4.9 11.9333577,4.9 13.37146,4.9" id="Path" stroke="#C6C4C2" stroke-width="1.8"></path>
                        <g id="Group-10" transform="translate(15.000000, 4.800000)">
                            <polyline id="Fill-8" fill="#FFFFFF" points="0.7237 0.1 5.8997 0.1 5.8997 5.276"></polyline>
                            <polyline id="Stroke-9" stroke="#C6C4C2" stroke-width="1.8" points="0.7237 0.1 5.8997 0.1 5.8997 5.276"></polyline>
                        </g>
                        <g id="Group-13" transform="translate(12.000000, 4.800000)">
                            <line x1="8.9" y1="0.1" x2="0.9" y2="8.1" id="Fill-11" fill="#FFFFFF"></line>
                            <line x1="8.9" y1="0.1" x2="0.9" y2="8.1" id="Stroke-12" stroke="#C6C4C2" stroke-width="1.8"></line>
                        </g>
                    </g>
                </g>
            </g>
        </g>
    </g>
</svg>