<?xml version="1.0" encoding="UTF-8"?>
<svg width="26px" height="26px" viewBox="0 0 26 26" version="1.1" xmlns="http://www.w3.org/2000/svg" xmlns:xlink="http://www.w3.org/1999/xlink">
    <title>icon_internal</title>
    <g id="4.-Components" stroke="none" stroke-width="1" fill="none" fill-rule="evenodd">
        <g id="(4-1)-App-bar" transform="translate(-802.000000, -3744.000000)" fill="#C6C4C2">
            <g id="Group-2" transform="translate(638.000000, 3681.000000)">
                <g id="Documents/Refer-to" transform="translate(0.000000, 42.000000)">
                    <g id="Icon/Go-to-External" transform="translate(164.000000, 21.000000)">
                        <path d="M22.3557621,11.019764 L15.1470035,4.24591183 C14.7913554,3.90944669 14.222558,3.91882551 13.8788846,4.27053123 C13.5352113,4.6210646 13.5471859,5.17793199 13.9040315,5.51439713 L20.401494,11.6211808 L2.89810116,11.6211808 C2.40115185,11.6211808 2,12.0150912 2,12.5004451 C2,12.985799 2.40115185,13.3797094 2.89810116,13.3797094 L20.401494,13.3797094 L13.9040315,19.486493 C13.5471859,19.8217858 13.5352113,20.3786532 13.8788846,20.7291866 C14.053715,20.9097289 14.2908137,21 14.5267149,21 C14.749444,21 14.9745681,20.9179353 15.1470035,20.7549783 L22.3569596,13.9787815 C22.772481,13.5883881 23,13.0631742 23,12.5004451 C23,11.9353712 22.772481,11.4101574 22.3557621,11.019764" id="Forward-/-Move-/-Send"></path>
                    </g>
                </g>
            </g>
        </g>
    </g>
</svg>